<svg xmlns="http://www.w3.org/2000/svg" xmlns:xlink="http://www.w3.org/1999/xlink" width="500" zoomAndPan="magnify" viewBox="0 0 375 374.999991" height="500" preserveAspectRatio="xMidYMid meet" version="1.0"><path fill="#e87722" d="M 83.539062 55.046875 C 75.75 57.570312 70.753906 60.722656 64.773438 66.898438 C 51.332031 80.761719 48.132812 99.71875 56.316406 117.011719 C 59.363281 123.460938 63.089844 128.207031 68.578125 132.636719 C 76.695312 139.183594 82.851562 141.453125 95.433594 142.546875 C 109.664062 143.78125 115.144531 146.03125 122.925781 153.820312 C 130.023438 160.925781 134.09375 170.707031 135.421875 183.84375 C 136.011719 189.664062 134.324219 200.164062 131.746094 206.714844 C 125.90625 221.542969 113.035156 231 98.6875 231 C 93.722656 231 82.609375 233.132812 78.808594 234.8125 C 67.316406 239.894531 57.449219 252.332031 53.976562 266.105469 C 48.273438 288.742188 60.289062 311.257812 82.382812 319.320312 C 89.207031 321.808594 101.351562 322.464844 107.683594 320.683594 C 116.941406 318.078125 124.46875 313.78125 130.058594 307.917969 C 137.507812 300.097656 142.5 287.128906 142.5 275.589844 C 142.5 254.191406 159.554688 238.1875 184.125 236.539062 C 197.214844 235.660156 211.335938 240.566406 219.605469 248.875 C 227.203125 256.507812 230.765625 265.328125 231.476562 278.25 C 232.246094 292.308594 235.132812 299.113281 244.046875 307.875 C 252.386719 316.074219 260.070312 319.621094 271.875 320.726562 C 277.566406 321.257812 289.140625 318.957031 294.851562 316.160156 C 318.699219 304.484375 327.667969 277.800781 315.535156 254.628906 C 312.316406 248.484375 303.167969 239.355469 297.222656 236.359375 C 290.808594 233.125 283.015625 231.214844 273.960938 230.65625 C 262.820312 229.96875 255.609375 227.214844 248.519531 220.941406 C 243.175781 216.207031 239.363281 210.140625 236.472656 201.757812 C 234.304688 195.46875 234.011719 193.691406 234.007812 186.734375 C 233.996094 173.238281 237.839844 162.988281 246.078125 154.539062 C 253.492188 146.941406 261.5625 143.777344 276.832031 142.480469 C 291.128906 141.269531 298.863281 137.804688 307.914062 128.554688 C 314.734375 121.582031 318.441406 113.703125 320.265625 102.28125 C 321.3125 95.734375 319.53125 86.191406 315.792969 78.28125 C 310.535156 67.171875 299.558594 58.054688 287.132812 54.472656 C 278.199219 51.894531 263.8125 53.292969 255.375 57.554688 C 250.796875 59.863281 243.289062 65.996094 240.433594 69.753906 C 233.929688 78.316406 232.054688 83.589844 230.640625 97.300781 C 229.214844 111.101562 229.089844 111.675781 226.144531 118.109375 C 214.078125 144.445312 175.570312 150.042969 154.164062 128.570312 C 145.367188 119.75 143.078125 113.53125 141.113281 93.117188 C 140.480469 86.496094 139.9375 84.460938 137.421875 79.242188 C 132.527344 69.089844 126.230469 62.457031 117.003906 57.75 C 107.507812 52.90625 93.609375 51.785156 83.539062 55.046875 " fill-opacity="1" fill-rule="evenodd"/></svg>